# xmcd
#
# Track frame offsets: 
#        150
#        12009
#        24039
#        49985
#        62273
#        80140
#        90730
#        116078
#        127073
#        138174
#        154935
#        165233
#
# Disc length: 2376 seconds
#
# Revision: 3
# Processed by: cddbd v1.5.2PL0 Copyright (c) Steve Scherf et al.
# Submitted via: ExactAudioCopy v0.99pb5
#
DISCID=8e09460c
DTITLE=Otis Taylor - When Negroes Walked the Earth
DYEAR=1997
DGENRE=Blues
TTITLE0=Bowlegged Charlie
TTITLE1=Country Boy, Girl
TTITLE2=500 Roses
TTITLE3=Cuckoo
TTITLE4=12 String Mile
TTITLE5=They Don't Want Me
TTITLE6=Cold at Midnight
TTITLE7=Tight Wire Blues
TTITLE8=Naggin' Woman Blues
TTITLE9=9th Cavalry Blues
TTITLE10=Tight Wire Blues
TTITLE11=Pretty Polly, traditional
EXTD=
EXTT0=
EXTT1=
EXTT2=
EXTT3=
EXTT4=
EXTT5=
EXTT6=
EXTT7=
EXTT8=
EXTT9=
EXTT10=
EXTT11=
PLAYORDER=
